<svg xmlns="http://www.w3.org/2000/svg" viewBox="0 0 18.13 12.3"><title>logo-html</title><g id="referencia"><path d="M390.07,398.43a4.58,4.58,0,0,0-.61.71c0,.07-.61,1-.29,1a14.45,14.45,0,0,0,4.19-.45c1.78-.35,3.52-.86,5.26-1.35.73-.21,1.46-.41,2.2-.6a10.85,10.85,0,0,1,2.59-.41,4.15,4.15,0,0,1,2.48.72,1.35,1.35,0,0,1,.65,1.1,1.32,1.32,0,0,1-.62.9,3,3,0,0,1-2.06.53,4.2,4.2,0,0,0,1.59-.84c.17-.15.34-.37.26-.58a.51.51,0,0,0-.24-.24,2.68,2.68,0,0,0-1.24-.28,11.54,11.54,0,0,0-3.53.66c-3.05.92-6.12,1.95-9.3,2A6.5,6.5,0,0,1,389,401c-.29-.12-.61-.32-.63-.64a.86.86,0,0,1,.19-.5A5.37,5.37,0,0,1,390.07,398.43Z" transform="translate(-388.41 -389)"/><path d="M393,392.77l-2,2,0,5.31c.67-.08,1.34-.21,2-.35Z" transform="translate(-388.41 -389)"/><path d="M404.16,397.32v-1.77l-1.5-1.2v3a6.3,6.3,0,0,1,.75-.05A4.73,4.73,0,0,1,404.16,397.32Z" transform="translate(-388.41 -389)"/><path d="M400.82,397.68c.51-.13,1-.25,1.54-.33v-3.81l-1.83-1.34v1.55L397.77,392v1.3l2.7,1.55,0,.64-2.67-1.64v4.63l.85-.24C399.35,398.07,400.08,397.87,400.82,397.68Z" transform="translate(-388.41 -389)"/><path d="M397.18,389l-3.61,2.58v8c1.21-.25,2.41-.57,3.61-.91Z" transform="translate(-388.41 -389)"/></g></svg>